<svg version="1.1" xmlns="http://www.w3.org/2000/svg" x="0" y="0" viewBox="0 0 327 327" style="enable-background:new 0 0 327 327" xml:space="preserve"><style>.st0{fill:#ebebeb}.st1{fill:#0d0d0d}.st2,.st3{fill:#c3a25d;stroke:#0d0d0d;stroke-width:16;stroke-linecap:round;stroke-linejoin:round;stroke-miterlimit:10}.st3{fill:none}</style><path class="st0" d="M295.55 327H31.45C14.08 327 0 312.92 0 295.55V31.45C0 14.08 14.08 0 31.45 0h264.1C312.92 0 327 14.08 327 31.45v264.1c0 17.37-14.08 31.45-31.45 31.45z"/><path class="st1" d="m148.67 269.52-3.74-.75a5.52 5.52 0 0 1-3.8-2.86c-2.02-3.91-12-23.95-9.86-34.66 2.47-12.36 12.06-18.75 24.42-16.28l1.87.37c11.91 2.38 17.51 11.37 14.97 24.05-2.12 10.6-17.09 26.7-18.79 28.5-1.3 1.39-3.21 2-5.07 1.63z"/><circle class="st2" cx="89.72" cy="160.05" r="52.88"/><circle class="st2" cx="237.06" cy="186.46" r="52.88"/><circle class="st1" cx="89.72" cy="160.05" r="22.95"/><circle class="st1" cx="236.78" cy="186.38" r="20.98"/><path class="st3" d="M144.12 160.25c12.62-14.27 39.12-8.96 42.07 10.96"/><path d="m138.89 70.42.04-.05c-7.89 39.44 41.33 53.29 48.18 19.08-5.16 25.81 37.8 34.35 42.68 9.94l.89-2.03" style="fill:#2eff74"/><path class="st3" d="m105.19 57.23 31.8 6.36c-7.89 39.44 41.33 53.29 48.18 19.08-5.16 25.81 37.8 34.35 42.68 9.94l35.87 7.17"/><path class="st0" d="m229.2 182.89-2.96-2.96a2.728 2.728 0 0 1 0-3.85l2.96-2.96a2.728 2.728 0 0 1 3.85 0l2.96 2.96a2.728 2.728 0 0 1 0 3.85l-2.96 2.96a2.71 2.71 0 0 1-3.85 0zM82.34 154.27l-2.96-2.96a2.728 2.728 0 0 1 0-3.85l2.96-2.96a2.728 2.728 0 0 1 3.85 0l2.96 2.96a2.728 2.728 0 0 1 0 3.85l-2.96 2.96a2.71 2.71 0 0 1-3.85 0z"/></svg>